<svg width="300" height="380" viewBox="0 0 300 380" fill="none" xmlns="http://www.w3.org/2000/svg">
<g clip-path="url(#clip0_2_894)">
<line opacity="0.05" x1="59.7945" y1="229.248" x2="412.485" y2="229.126" stroke="#111218" stroke-width="0.710075" stroke-dasharray="3.76 3.76"/>
<line opacity="0.05" x1="60.2369" y1="192.903" x2="412.485" y2="192.903" stroke="#111218" stroke-width="0.710075" stroke-dasharray="3.76 3.76"/>
<line opacity="0.05" x1="59.7943" y1="156.123" x2="412.485" y2="155.796" stroke="#111218" stroke-width="0.710075" stroke-dasharray="3.76 3.76"/>
<line opacity="0.05" x1="59.7946" y1="119.561" x2="412.485" y2="119.561" stroke="#111218" stroke-width="0.710075" stroke-dasharray="3.76 3.76"/>
<line opacity="0.05" x1="59.795" y1="82.9993" x2="412.486" y2="83.3227" stroke="#111218" stroke-width="0.710075" stroke-dasharray="3.76 3.76"/>
<line opacity="0.05" x1="59.7945" y1="46.4376" x2="412.485" y2="46.2188" stroke="#111218" stroke-width="0.710075" stroke-dasharray="3.76 3.76"/>
<line opacity="0.05" x1="61.0469" y1="8.86371" x2="413.738" y2="8.64491" stroke="#111218" stroke-width="0.710075" stroke-dasharray="3.76 3.76"/>
<g opacity="0.7">
<path opacity="0.7" d="M41.5147 88.1241C40.987 88.1241 40.5328 88.0473 40.152 87.8937C39.778 87.74 39.4907 87.5163 39.2903 87.2223C39.0966 86.9284 38.9998 86.5744 38.9998 86.1603C38.9998 85.8329 39.0666 85.5424 39.2002 85.2885C39.3338 85.028 39.5208 84.8176 39.7613 84.6573C40.0017 84.497 40.279 84.3968 40.5929 84.3567V84.507C40.1587 84.4135 39.8114 84.2098 39.5509 83.8958C39.297 83.5752 39.1701 83.1978 39.1701 82.7636C39.1701 82.3628 39.2636 82.0255 39.4507 81.7516C39.6444 81.471 39.9182 81.2573 40.2723 81.1103C40.6263 80.9567 41.0404 80.8799 41.5147 80.8799C41.9957 80.8799 42.4098 80.9567 42.7572 81.1103C43.1112 81.2573 43.3851 81.471 43.5788 81.7516C43.7725 82.0255 43.8693 82.3628 43.8693 82.7636C43.8693 83.0508 43.8092 83.318 43.689 83.5652C43.5754 83.8056 43.4118 84.006 43.198 84.1663C42.9843 84.3267 42.7338 84.4369 42.4465 84.497V84.3567C42.9208 84.4235 43.3016 84.6206 43.5888 84.9479C43.8827 85.2685 44.0297 85.6726 44.0297 86.1603C44.0297 86.5744 43.9295 86.9284 43.7291 87.2223C43.5353 87.5163 43.2481 87.74 42.8674 87.8937C42.4933 88.0473 42.0424 88.1241 41.5147 88.1241ZM41.5147 87.4428C42.0825 87.4428 42.51 87.3326 42.7972 87.1121C43.0911 86.8917 43.2381 86.5577 43.2381 86.1102C43.2381 85.6693 43.0911 85.342 42.7972 85.1282C42.51 84.9078 42.0825 84.7976 41.5147 84.7976C40.9536 84.7976 40.5261 84.9078 40.2322 85.1282C39.9383 85.342 39.7913 85.6693 39.7913 86.1102C39.7913 86.5577 39.9383 86.8917 40.2322 87.1121C40.5261 87.3326 40.9536 87.4428 41.5147 87.4428ZM41.5147 84.1162C41.842 84.1162 42.1192 84.0661 42.3463 83.9659C42.5801 83.8591 42.7605 83.7088 42.8874 83.5151C43.0143 83.3213 43.0778 83.0942 43.0778 82.8337C43.0778 82.4329 42.9375 82.1223 42.657 81.9019C42.3831 81.6748 42.0023 81.5612 41.5147 81.5612C41.0271 81.5612 40.6463 81.6748 40.3725 81.9019C40.0986 82.1223 39.9617 82.4329 39.9617 82.8337C39.9617 83.2345 40.0986 83.5485 40.3725 83.7756C40.6463 84.0027 41.0271 84.1162 41.5147 84.1162ZM47.5226 88.1241C46.7144 88.1241 46.0998 87.8135 45.679 87.1923C45.2582 86.5711 45.0477 85.6726 45.0477 84.497C45.0477 83.7088 45.1413 83.0475 45.3283 82.5131C45.5153 81.972 45.7925 81.5646 46.1599 81.2907C46.534 81.0168 46.9882 80.8799 47.5226 80.8799C48.3375 80.8799 48.9521 81.1872 49.3662 81.8017C49.7871 82.4096 49.9975 83.3046 49.9975 84.487C49.9975 85.2752 49.9039 85.9398 49.7169 86.4809C49.5299 87.0219 49.2527 87.4328 48.8853 87.7133C48.5179 87.9872 48.0637 88.1241 47.5226 88.1241ZM47.5226 87.4127C48.0837 87.4127 48.4979 87.1756 48.765 86.7013C49.0389 86.2204 49.1759 85.4823 49.1759 84.487C49.1759 83.485 49.0389 82.7536 48.765 82.2927C48.4979 81.8251 48.0837 81.5913 47.5226 81.5913C46.9682 81.5913 46.554 81.8251 46.2802 82.2927C46.0063 82.7602 45.8694 83.4917 45.8694 84.487C45.8694 85.4823 46.0063 86.2204 46.2802 86.7013C46.554 87.1756 46.9682 87.4127 47.5226 87.4127Z" fill="#111218"/>
<path opacity="0.7" d="M41.7552 124.445C41.2008 124.445 40.7265 124.312 40.3324 124.045C39.945 123.771 39.6511 123.377 39.4507 122.862C39.2503 122.348 39.1501 121.727 39.1501 120.999C39.1501 120.384 39.2135 119.843 39.3404 119.375C39.4674 118.908 39.6544 118.514 39.9015 118.193C40.1487 117.866 40.4493 117.619 40.8033 117.452C41.1573 117.285 41.5581 117.201 42.0057 117.201C42.3129 117.201 42.6269 117.261 42.9475 117.382C43.2748 117.502 43.5621 117.672 43.8092 117.893C43.8827 117.946 43.9261 118.013 43.9395 118.093C43.9595 118.166 43.9595 118.24 43.9395 118.313C43.9194 118.38 43.8827 118.437 43.8293 118.484C43.7825 118.53 43.7224 118.557 43.6489 118.564C43.5754 118.564 43.4986 118.534 43.4185 118.474C43.1913 118.28 42.9575 118.143 42.7171 118.063C42.4766 117.976 42.2328 117.933 41.9856 117.933C41.5515 117.933 41.1807 118.039 40.8735 118.253C40.5729 118.467 40.3424 118.791 40.1821 119.225C40.0285 119.653 39.9516 120.19 39.9516 120.838V121.77H39.8615C39.9015 121.389 40.0118 121.062 40.1921 120.788C40.3792 120.508 40.6163 120.294 40.9035 120.147C41.1907 120 41.5147 119.927 41.8754 119.927C42.2896 119.927 42.657 120.02 42.9776 120.207C43.2982 120.394 43.5487 120.658 43.7291 120.999C43.9094 121.333 43.9996 121.717 43.9996 122.151C43.9996 122.592 43.9061 122.986 43.719 123.333C43.532 123.681 43.2682 123.954 42.9275 124.155C42.5868 124.349 42.1961 124.445 41.7552 124.445ZM41.7051 123.744C41.999 123.744 42.2595 123.681 42.4866 123.554C42.7137 123.42 42.8907 123.236 43.0177 123.003C43.1446 122.762 43.208 122.488 43.208 122.181C43.208 121.874 43.1446 121.603 43.0177 121.369C42.8907 121.136 42.7137 120.952 42.4866 120.818C42.2595 120.685 41.999 120.618 41.7051 120.618C41.4112 120.618 41.1507 120.685 40.9236 120.818C40.6964 120.952 40.5194 121.136 40.3925 121.369C40.2656 121.603 40.2021 121.874 40.2021 122.181C40.2021 122.488 40.2656 122.762 40.3925 123.003C40.5194 123.236 40.6964 123.42 40.9236 123.554C41.1507 123.681 41.4112 123.744 41.7051 123.744ZM47.5226 124.445C46.7144 124.445 46.0998 124.135 45.679 123.514C45.2582 122.892 45.0477 121.994 45.0477 120.818C45.0477 120.03 45.1413 119.369 45.3283 118.834C45.5153 118.293 45.7925 117.886 46.1599 117.612C46.534 117.338 46.9882 117.201 47.5226 117.201C48.3375 117.201 48.9521 117.508 49.3662 118.123C49.7871 118.731 49.9975 119.626 49.9975 120.808C49.9975 121.596 49.9039 122.261 49.7169 122.802C49.5299 123.343 49.2527 123.754 48.8853 124.035C48.5179 124.308 48.0637 124.445 47.5226 124.445ZM47.5226 123.734C48.0837 123.734 48.4979 123.497 48.765 123.023C49.0389 122.542 49.1759 121.804 49.1759 120.808C49.1759 119.806 49.0389 119.075 48.765 118.614C48.4979 118.146 48.0837 117.913 47.5226 117.913C46.9682 117.913 46.554 118.146 46.2802 118.614C46.0063 119.082 45.8694 119.813 45.8694 120.808C45.8694 121.804 46.0063 122.542 46.2802 123.023C46.554 123.497 46.9682 123.734 47.5226 123.734Z" fill="#111218"/>
<path opacity="0.7" d="M42.697 160.747C42.5701 160.747 42.4699 160.71 42.3964 160.637C42.323 160.563 42.2862 160.46 42.2862 160.326V159.164H39.4106C39.277 159.164 39.1701 159.134 39.09 159.073C39.0165 159.007 38.9797 158.913 38.9797 158.793C38.9797 158.719 38.9964 158.646 39.0298 158.573C39.0632 158.492 39.1234 158.392 39.2102 158.272L42.2662 153.823C42.3263 153.73 42.3931 153.66 42.4666 153.613C42.5401 153.566 42.6269 153.543 42.7271 153.543C42.834 153.543 42.9241 153.576 42.9976 153.643C43.0778 153.71 43.1179 153.816 43.1179 153.963V158.462H43.8493C43.9762 158.462 44.0731 158.492 44.1399 158.552C44.2067 158.613 44.2401 158.699 44.2401 158.813C44.2401 158.927 44.2067 159.013 44.1399 159.073C44.0731 159.134 43.9762 159.164 43.8493 159.164H43.1179V160.326C43.1179 160.46 43.0811 160.563 43.0076 160.637C42.9342 160.71 42.8306 160.747 42.697 160.747ZM42.2862 158.462V154.575H42.5267L39.7212 158.683V158.462H42.2862ZM47.5226 160.767C46.7144 160.767 46.0998 160.456 45.679 159.835C45.2582 159.214 45.0477 158.315 45.0477 157.14C45.0477 156.351 45.1413 155.69 45.3283 155.156C45.5153 154.615 45.7925 154.207 46.1599 153.933C46.534 153.66 46.9882 153.523 47.5226 153.523C48.3375 153.523 48.9521 153.83 49.3662 154.444C49.7871 155.052 49.9975 155.947 49.9975 157.13C49.9975 157.918 49.9039 158.583 49.7169 159.124C49.5299 159.665 49.2527 160.075 48.8853 160.356C48.5179 160.63 48.0637 160.767 47.5226 160.767ZM47.5226 160.055C48.0837 160.055 48.4979 159.818 48.765 159.344C49.0389 158.863 49.1759 158.125 49.1759 157.13C49.1759 156.128 49.0389 155.396 48.765 154.935C48.4979 154.468 48.0837 154.234 47.5226 154.234C46.9682 154.234 46.554 154.468 46.2802 154.935C46.0063 155.403 45.8694 156.134 45.8694 157.13C45.8694 158.125 46.0063 158.863 46.2802 159.344C46.554 159.818 46.9682 160.055 47.5226 160.055Z" fill="#111218"/>
<path opacity="0.7" d="M39.8013 196.998C39.6544 196.998 39.5442 196.965 39.4707 196.898C39.4039 196.824 39.3705 196.727 39.3705 196.607C39.3705 196.534 39.3872 196.464 39.4206 196.397C39.4607 196.323 39.5141 196.25 39.5809 196.176L41.8253 193.772C42.166 193.404 42.4098 193.067 42.5568 192.76C42.7104 192.446 42.7872 192.128 42.7872 191.808C42.7872 191.407 42.6636 191.103 42.4165 190.896C42.176 190.682 41.822 190.575 41.3544 190.575C41.0538 190.575 40.7699 190.622 40.5027 190.716C40.2355 190.809 39.9784 190.953 39.7312 191.146C39.6444 191.213 39.5642 191.243 39.4907 191.237C39.4239 191.23 39.3638 191.203 39.3104 191.156C39.2569 191.11 39.2202 191.05 39.2002 190.976C39.1801 190.903 39.1801 190.829 39.2002 190.756C39.2269 190.682 39.2803 190.615 39.3605 190.555C39.621 190.342 39.9349 190.171 40.3023 190.044C40.6697 189.911 41.0438 189.844 41.4245 189.844C41.8988 189.844 42.2996 189.917 42.6269 190.064C42.9542 190.211 43.2014 190.428 43.3684 190.716C43.5353 190.996 43.6188 191.34 43.6188 191.748C43.6188 192.028 43.5721 192.305 43.4786 192.579C43.3917 192.846 43.2548 193.12 43.0678 193.401C42.8874 193.681 42.6503 193.972 42.3564 194.273L40.2222 196.527V196.297H43.5988C43.7257 196.297 43.8192 196.327 43.8794 196.387C43.9462 196.44 43.9796 196.524 43.9796 196.637C43.9796 196.757 43.9462 196.848 43.8794 196.908C43.8192 196.968 43.7257 196.998 43.5988 196.998H39.8013ZM47.5226 197.088C46.7144 197.088 46.0998 196.777 45.679 196.156C45.2582 195.535 45.0477 194.637 45.0477 193.461C45.0477 192.673 45.1413 192.011 45.3283 191.477C45.5153 190.936 45.7925 190.529 46.1599 190.255C46.534 189.981 46.9882 189.844 47.5226 189.844C48.3375 189.844 48.9521 190.151 49.3662 190.766C49.7871 191.374 49.9975 192.269 49.9975 193.451C49.9975 194.239 49.9039 194.904 49.7169 195.445C49.5299 195.986 49.2527 196.397 48.8853 196.677C48.5179 196.951 48.0637 197.088 47.5226 197.088ZM47.5226 196.377C48.0837 196.377 48.4979 196.14 48.765 195.665C49.0389 195.184 49.1759 194.446 49.1759 193.451C49.1759 192.449 49.0389 191.718 48.765 191.257C48.4979 190.789 48.0837 190.555 47.5226 190.555C46.9682 190.555 46.554 190.789 46.2802 191.257C46.0063 191.724 45.8694 192.456 45.8694 193.451C45.8694 194.446 46.0063 195.184 46.2802 195.665C46.554 196.14 46.9682 196.377 47.5226 196.377Z" fill="#111218"/>
<path opacity="0.7" d="M46.2701 233.409C45.4619 233.409 44.8473 233.099 44.4265 232.478C44.0057 231.856 43.7953 230.958 43.7953 229.782C43.7953 228.994 43.8888 228.333 44.0758 227.798C44.2629 227.257 44.5401 226.85 44.9075 226.576C45.2815 226.302 45.7358 226.165 46.2701 226.165C47.0851 226.165 47.6996 226.472 48.1138 227.087C48.5346 227.695 48.745 228.59 48.745 229.772C48.745 230.56 48.6515 231.225 48.4644 231.766C48.2774 232.307 48.0002 232.718 47.6328 232.999C47.2654 233.272 46.8112 233.409 46.2701 233.409ZM46.2701 232.698C46.8312 232.698 47.2454 232.461 47.5126 231.987C47.7864 231.506 47.9234 230.768 47.9234 229.772C47.9234 228.77 47.7864 228.039 47.5126 227.578C47.2454 227.11 46.8312 226.877 46.2701 226.877C45.7157 226.877 45.3016 227.11 45.0277 227.578C44.7538 228.046 44.6169 228.777 44.6169 229.772C44.6169 230.768 44.7538 231.506 45.0277 231.987C45.3016 232.461 45.7157 232.698 46.2701 232.698Z" fill="#111218"/>
</g>
<g filter="url(#filter0_d_2_894)">
<path d="M60.2369 131.306L64.4198 137.148C68.6272 142.771 77.1154 154.781 85.4324 163.352C93.7738 172.251 102.066 177.71 110.628 166.246C118.945 154.781 127.262 125.301 135.824 125.465C144.116 125.301 152.457 154.781 160.774 163.352C169.263 172.251 177.653 160.24 185.97 166.246C194.434 172.251 202.849 195.18 211.166 186.609C219.58 177.71 228.044 137.311 236.361 140.041C244.751 142.771 253.24 164.077 261.557 187.17C269.898 210.481 278.191 210.481 286.752 195.904C296.232 181.952 300.86 176.494 311.054 168.81C321.807 161.758 328.582 172.251 336.899 160.404C345.387 148.776 353.777 113.837 362.094 107.995C370.558 102.372 378.973 125.301 387.29 128.413C395.705 131.306 404.168 113.837 408.327 105.102L412.485 96.3669" stroke="#3751DC" stroke-width="2.8403" stroke-linecap="round"/>
</g>
<g filter="url(#filter1_d_2_894)">
<ellipse cx="135.025" cy="124.929" rx="5.06232" ry="5.01832" fill="#111218"/>
<path d="M139.022 124.929C139.022 127.103 137.241 128.882 135.025 128.882C132.808 128.882 131.027 127.103 131.027 124.929C131.027 122.754 132.808 120.976 135.025 120.976C137.241 120.976 139.022 122.754 139.022 124.929Z" stroke="#3751DC" stroke-width="2.13023"/>
</g>
<g filter="url(#filter2_d_2_894)">
<ellipse cx="236.443" cy="139.417" rx="5.06232" ry="5.01832" fill="#111218"/>
<path d="M240.44 139.417C240.44 141.592 238.66 143.37 236.443 143.37C234.227 143.37 232.446 141.592 232.446 139.417C232.446 137.243 234.227 135.464 236.443 135.464C238.66 135.464 240.44 137.243 240.44 139.417Z" stroke="#3751DC" stroke-width="2.13023"/>
</g>
<g filter="url(#filter3_d_2_894)">
<ellipse cx="183.017" cy="164.772" rx="5.06232" ry="5.01832" fill="#111218"/>
<path d="M187.014 164.772C187.014 166.946 185.234 168.725 183.017 168.725C180.801 168.725 179.02 166.946 179.02 164.772C179.02 162.597 180.801 160.819 183.017 160.819C185.234 160.819 187.014 162.597 187.014 164.772Z" stroke="#3751DC" stroke-width="2.13023"/>
</g>
<line x1="296.904" y1="228.329" x2="296.904" y2="111.85" stroke="#28A263" stroke-width="0.710075" stroke-dasharray="1.42 4.97"/>
</g>
<defs>
<filter id="filter0_d_2_894" x="55.9763" y="94.9464" width="360.77" height="118.091" filterUnits="userSpaceOnUse" color-interpolation-filters="sRGB">
<feFlood flood-opacity="0" result="BackgroundImageFix"/>
<feColorMatrix in="SourceAlpha" type="matrix" values="0 0 0 0 0 0 0 0 0 0 0 0 0 0 0 0 0 0 127 0" result="hardAlpha"/>
<feOffset dy="2.8403"/>
<feGaussianBlur stdDeviation="1.42015"/>
<feColorMatrix type="matrix" values="0 0 0 0 0.156863 0 0 0 0 0.635294 0 0 0 0 0.388235 0 0 0 0.18 0"/>
<feBlend mode="normal" in2="BackgroundImageFix" result="effect1_dropShadow_2_894"/>
<feBlend mode="normal" in="SourceGraphic" in2="effect1_dropShadow_2_894" result="shape"/>
</filter>
<filter id="filter1_d_2_894" x="127.122" y="119.91" width="15.8053" height="15.7172" filterUnits="userSpaceOnUse" color-interpolation-filters="sRGB">
<feFlood flood-opacity="0" result="BackgroundImageFix"/>
<feColorMatrix in="SourceAlpha" type="matrix" values="0 0 0 0 0 0 0 0 0 0 0 0 0 0 0 0 0 0 127 0" result="hardAlpha"/>
<feOffset dy="2.8403"/>
<feGaussianBlur stdDeviation="1.42015"/>
<feColorMatrix type="matrix" values="0 0 0 0 0.156863 0 0 0 0 0.635294 0 0 0 0 0.388235 0 0 0 0.03 0"/>
<feBlend mode="normal" in2="BackgroundImageFix" result="effect1_dropShadow_2_894"/>
<feBlend mode="normal" in="SourceGraphic" in2="effect1_dropShadow_2_894" result="shape"/>
</filter>
<filter id="filter2_d_2_894" x="228.541" y="134.399" width="15.8052" height="15.7172" filterUnits="userSpaceOnUse" color-interpolation-filters="sRGB">
<feFlood flood-opacity="0" result="BackgroundImageFix"/>
<feColorMatrix in="SourceAlpha" type="matrix" values="0 0 0 0 0 0 0 0 0 0 0 0 0 0 0 0 0 0 127 0" result="hardAlpha"/>
<feOffset dy="2.8403"/>
<feGaussianBlur stdDeviation="1.42015"/>
<feColorMatrix type="matrix" values="0 0 0 0 0.156863 0 0 0 0 0.635294 0 0 0 0 0.388235 0 0 0 0.03 0"/>
<feBlend mode="normal" in2="BackgroundImageFix" result="effect1_dropShadow_2_894"/>
<feBlend mode="normal" in="SourceGraphic" in2="effect1_dropShadow_2_894" result="shape"/>
</filter>
<filter id="filter3_d_2_894" x="175.115" y="159.754" width="15.8052" height="15.7172" filterUnits="userSpaceOnUse" color-interpolation-filters="sRGB">
<feFlood flood-opacity="0" result="BackgroundImageFix"/>
<feColorMatrix in="SourceAlpha" type="matrix" values="0 0 0 0 0 0 0 0 0 0 0 0 0 0 0 0 0 0 127 0" result="hardAlpha"/>
<feOffset dy="2.8403"/>
<feGaussianBlur stdDeviation="1.42015"/>
<feColorMatrix type="matrix" values="0 0 0 0 0.156863 0 0 0 0 0.635294 0 0 0 0 0.388235 0 0 0 0.12 0"/>
<feBlend mode="normal" in2="BackgroundImageFix" result="effect1_dropShadow_2_894"/>
<feBlend mode="normal" in="SourceGraphic" in2="effect1_dropShadow_2_894" result="shape"/>
</filter>
<clipPath id="clip0_2_894">
<rect width="300" height="380" rx="24" fill="white"/>
</clipPath>
</defs>
</svg>
