<svg width="300" height="380" viewBox="0 0 300 380" fill="none" xmlns="http://www.w3.org/2000/svg">
<g clip-path="url(#clip0_2_908)">
<path d="M211.571 67.6888C210.932 64.2161 213.255 60.875 216.756 60.4062C239.292 57.3891 262.252 58.8975 284.193 64.8633C306.063 70.8097 326.403 81.0441 343.958 94.9041C346.77 97.1238 347.008 101.257 344.583 103.901L317.209 133.745C314.898 136.266 311.017 136.486 308.304 134.412C296.818 125.631 283.63 119.119 269.49 115.275C255.368 111.435 240.618 110.342 226.091 112.037C222.644 112.439 219.39 110.189 218.763 106.777L211.571 67.6888Z" fill="#3751DC"/>
<path d="M122.487 115.022C119.806 112.645 119.624 108.508 122.197 106.008C141.127 87.6181 164.408 73.9531 190.023 66.1997C193.332 65.1979 196.765 67.1701 197.7 70.4962L208.474 108.823C209.433 112.235 207.399 115.757 204.025 116.852C188.214 121.984 173.796 130.492 161.845 141.742C159.355 144.086 155.473 144.271 152.918 142.006L122.487 115.022Z" fill="#3751DC" fill-opacity="0.37"/>
<path d="M80.4054 216.805C76.9049 216.765 74.0902 213.893 74.2791 210.397C75.9828 178.866 87.3197 148.516 106.857 123.195C108.947 120.486 112.837 120.075 115.532 122.175L147.706 147.243C150.531 149.443 150.951 153.539 148.826 156.426C137.006 172.482 129.981 191.374 128.524 211.025C128.266 214.516 125.411 217.325 121.911 217.284L80.4054 216.805Z" fill="#3751DC" fill-opacity="0.11"/>
<path d="M192.783 197.123V162.835H194.979V197.123H192.783ZM199.118 173.804C198.993 172.635 198.466 171.724 197.538 171.072C196.618 170.42 195.421 170.094 193.948 170.094C192.912 170.094 192.024 170.251 191.283 170.563C190.542 170.876 189.975 171.3 189.582 171.835C189.189 172.371 188.988 172.983 188.979 173.67C188.979 174.242 189.108 174.737 189.367 175.157C189.635 175.577 189.997 175.934 190.452 176.229C190.908 176.514 191.412 176.755 191.966 176.952C192.519 177.148 193.077 177.314 193.64 177.447L196.212 178.09C197.247 178.331 198.243 178.657 199.198 179.068C200.163 179.479 201.024 179.997 201.783 180.622C202.551 181.247 203.158 182.001 203.605 182.885C204.051 183.769 204.275 184.805 204.275 185.993C204.275 187.6 203.864 189.015 203.042 190.239C202.221 191.453 201.033 192.404 199.48 193.091C197.935 193.77 196.064 194.109 193.868 194.109C191.734 194.109 189.881 193.779 188.309 193.118C186.747 192.457 185.523 191.493 184.639 190.225C183.764 188.957 183.291 187.412 183.22 185.591H188.108C188.18 186.546 188.474 187.341 188.992 187.975C189.51 188.609 190.184 189.082 191.015 189.395C191.854 189.707 192.792 189.863 193.827 189.863C194.908 189.863 195.854 189.703 196.667 189.381C197.488 189.051 198.131 188.596 198.596 188.015C199.06 187.426 199.297 186.738 199.306 185.953C199.297 185.238 199.087 184.649 198.676 184.185C198.265 183.711 197.689 183.318 196.948 183.006C196.216 182.684 195.359 182.399 194.377 182.149L191.256 181.345C188.997 180.765 187.211 179.885 185.898 178.706C184.595 177.519 183.943 175.943 183.943 173.978C183.943 172.362 184.38 170.947 185.255 169.733C186.139 168.518 187.34 167.576 188.858 166.907C190.376 166.228 192.095 165.889 194.015 165.889C195.962 165.889 197.667 166.228 199.131 166.907C200.605 167.576 201.761 168.509 202.6 169.706C203.44 170.893 203.873 172.26 203.9 173.804H199.118ZM217.219 194.069C215.433 194.069 213.835 193.734 212.424 193.065C211.013 192.386 209.892 191.457 209.062 190.279C208.24 189.1 207.803 187.752 207.749 186.234H212.571C212.66 187.359 213.147 188.279 214.031 188.993C214.915 189.698 215.978 190.051 217.219 190.051C218.192 190.051 219.058 189.828 219.817 189.381C220.576 188.935 221.174 188.314 221.612 187.52C222.049 186.725 222.264 185.819 222.255 184.801C222.264 183.765 222.045 182.845 221.598 182.042C221.152 181.238 220.54 180.608 219.764 180.153C218.987 179.689 218.094 179.457 217.085 179.457C216.263 179.448 215.455 179.599 214.661 179.912C213.866 180.224 213.236 180.635 212.772 181.144L208.285 180.407L209.718 166.264H225.63V170.416H213.83L213.04 177.689H213.201C213.71 177.09 214.428 176.595 215.357 176.202C216.286 175.8 217.304 175.599 218.411 175.599C220.072 175.599 221.554 175.992 222.857 176.778C224.161 177.555 225.188 178.626 225.938 179.992C226.688 181.358 227.063 182.921 227.063 184.68C227.063 186.493 226.643 188.109 225.804 189.529C224.974 190.939 223.817 192.051 222.335 192.864C220.862 193.667 219.156 194.069 217.219 194.069ZM230.3 188.604V184.653L241.939 166.264H245.234V171.889H243.225L235.39 184.305V184.519H251.636V188.604H230.3ZM243.386 193.694V187.399L243.439 185.631V166.264H248.127V193.694H243.386ZM256.166 193.694L267.832 170.603V170.416H254.291V166.264H272.975V170.51L261.322 193.694H256.166ZM286 194.069C284.687 194.06 283.406 193.832 282.155 193.386C280.905 192.931 279.78 192.194 278.78 191.176C277.78 190.149 276.986 188.788 276.396 187.091C275.807 185.386 275.517 183.274 275.526 180.756C275.526 178.407 275.776 176.313 276.276 174.474C276.776 172.635 277.494 171.081 278.432 169.813C279.37 168.536 280.499 167.563 281.821 166.893C283.151 166.224 284.638 165.889 286.281 165.889C288.004 165.889 289.531 166.228 290.861 166.907C292.201 167.585 293.281 168.514 294.103 169.692C294.924 170.862 295.433 172.184 295.63 173.657H290.741C290.491 172.603 289.977 171.764 289.201 171.139C288.433 170.505 287.459 170.188 286.281 170.188C284.379 170.188 282.914 171.014 281.888 172.666C280.87 174.318 280.356 176.586 280.347 179.47H280.535C280.972 178.684 281.539 178.01 282.236 177.447C282.932 176.885 283.718 176.452 284.593 176.148C285.477 175.836 286.41 175.679 287.392 175.679C289 175.679 290.442 176.063 291.719 176.831C293.004 177.599 294.022 178.657 294.772 180.006C295.522 181.345 295.893 182.881 295.884 184.613C295.893 186.417 295.482 188.037 294.652 189.475C293.821 190.904 292.665 192.029 291.183 192.85C289.701 193.672 287.973 194.078 286 194.069ZM285.973 190.051C286.946 190.051 287.817 189.814 288.584 189.341C289.352 188.868 289.96 188.229 290.406 187.426C290.853 186.622 291.071 185.72 291.062 184.72C291.071 183.738 290.857 182.85 290.419 182.055C289.991 181.26 289.397 180.631 288.638 180.166C287.879 179.702 287.013 179.47 286.04 179.47C285.316 179.47 284.642 179.608 284.017 179.885C283.392 180.162 282.848 180.546 282.383 181.037C281.919 181.519 281.553 182.082 281.285 182.725C281.026 183.359 280.892 184.037 280.883 184.76C280.892 185.716 281.115 186.595 281.553 187.399C281.99 188.203 282.593 188.846 283.361 189.328C284.129 189.81 284.999 190.051 285.973 190.051Z" fill="black"/>
<path d="M161.619 230.511V220.153H167.87V221.265H162.873V224.765H167.547V225.878H162.873V229.398H167.951V230.511H161.619ZM169.684 230.511V222.742H170.837V223.956H170.939C171.1 223.541 171.362 223.219 171.722 222.99C172.083 222.757 172.516 222.641 173.022 222.641C173.535 222.641 173.961 222.757 174.302 222.99C174.646 223.219 174.914 223.541 175.106 223.956H175.187C175.386 223.555 175.684 223.236 176.082 223C176.48 222.761 176.957 222.641 177.513 222.641C178.208 222.641 178.776 222.859 179.218 223.294C179.659 223.725 179.88 224.398 179.88 225.311V230.511H178.687V225.311C178.687 224.738 178.53 224.329 178.216 224.082C177.903 223.836 177.534 223.713 177.109 223.713C176.562 223.713 176.139 223.879 175.839 224.209C175.539 224.536 175.389 224.951 175.389 225.453V230.511H174.175V225.19C174.175 224.748 174.032 224.393 173.745 224.123C173.459 223.85 173.09 223.713 172.638 223.713C172.328 223.713 172.038 223.796 171.768 223.961C171.502 224.126 171.286 224.356 171.121 224.649C170.959 224.939 170.878 225.274 170.878 225.655V230.511H169.684ZM184.064 230.693C183.571 230.693 183.125 230.6 182.723 230.415C182.322 230.226 182.004 229.954 181.768 229.6C181.532 229.243 181.414 228.811 181.414 228.306C181.414 227.86 181.501 227.5 181.677 227.223C181.852 226.943 182.086 226.724 182.38 226.566C182.673 226.407 182.997 226.289 183.351 226.212C183.708 226.131 184.067 226.067 184.428 226.02C184.9 225.959 185.283 225.913 185.576 225.883C185.873 225.849 186.088 225.794 186.223 225.716C186.362 225.639 186.431 225.504 186.431 225.311V225.271C186.431 224.772 186.294 224.384 186.021 224.108C185.751 223.831 185.342 223.693 184.792 223.693C184.222 223.693 183.775 223.818 183.452 224.067C183.128 224.317 182.901 224.583 182.769 224.866L181.636 224.462C181.838 223.99 182.108 223.622 182.445 223.359C182.786 223.093 183.157 222.907 183.558 222.803C183.963 222.695 184.36 222.641 184.752 222.641C185.001 222.641 185.288 222.671 185.611 222.732C185.938 222.789 186.254 222.909 186.557 223.091C186.864 223.273 187.118 223.548 187.321 223.916C187.523 224.283 187.624 224.775 187.624 225.392V230.511H186.431V229.459H186.37C186.289 229.627 186.154 229.808 185.965 230C185.777 230.192 185.525 230.356 185.212 230.49C184.898 230.625 184.516 230.693 184.064 230.693ZM184.246 229.62C184.718 229.62 185.116 229.528 185.439 229.342C185.766 229.157 186.013 228.917 186.178 228.624C186.346 228.331 186.431 228.022 186.431 227.699V226.606C186.38 226.667 186.269 226.723 186.097 226.773C185.928 226.82 185.733 226.862 185.51 226.9C185.291 226.933 185.077 226.964 184.868 226.991C184.662 227.014 184.495 227.034 184.367 227.051C184.057 227.092 183.767 227.157 183.497 227.249C183.231 227.336 183.015 227.469 182.85 227.648C182.688 227.823 182.607 228.063 182.607 228.366C182.607 228.781 182.761 229.095 183.067 229.307C183.378 229.516 183.77 229.62 184.246 229.62ZM189.518 230.511V222.742H190.712V230.511H189.518ZM190.125 221.448C189.892 221.448 189.692 221.368 189.523 221.21C189.358 221.051 189.275 220.861 189.275 220.638C189.275 220.416 189.358 220.225 189.523 220.067C189.692 219.908 189.892 219.829 190.125 219.829C190.357 219.829 190.556 219.908 190.722 220.067C190.89 220.225 190.975 220.416 190.975 220.638C190.975 220.861 190.89 221.051 190.722 221.21C190.556 221.368 190.357 221.448 190.125 221.448ZM193.806 220.153V230.511H192.613V220.153H193.806ZM199.428 230.511V222.742H200.581V223.916H200.662C200.804 223.531 201.06 223.219 201.431 222.98C201.802 222.741 202.22 222.621 202.685 222.621C202.773 222.621 202.883 222.623 203.014 222.626C203.146 222.629 203.245 222.634 203.313 222.641V223.855C203.272 223.845 203.179 223.83 203.034 223.809C202.893 223.786 202.743 223.774 202.584 223.774C202.207 223.774 201.869 223.853 201.573 224.012C201.279 224.167 201.047 224.383 200.875 224.659C200.706 224.932 200.622 225.244 200.622 225.595V230.511H199.428ZM207.463 230.672C206.715 230.672 206.069 230.507 205.526 230.177C204.987 229.843 204.57 229.378 204.277 228.781C203.987 228.181 203.842 227.483 203.842 226.687C203.842 225.891 203.987 225.19 204.277 224.583C204.57 223.973 204.978 223.498 205.501 223.157C206.027 222.813 206.64 222.641 207.342 222.641C207.746 222.641 208.146 222.709 208.54 222.843C208.935 222.978 209.294 223.197 209.618 223.501C209.941 223.801 210.199 224.199 210.391 224.694C210.584 225.19 210.68 225.8 210.68 226.525V227.031H204.692V225.999H209.466C209.466 225.561 209.378 225.17 209.203 224.826C209.031 224.482 208.785 224.211 208.465 224.012C208.148 223.813 207.773 223.713 207.342 223.713C206.866 223.713 206.455 223.831 206.108 224.067C205.764 224.3 205.499 224.603 205.314 224.978C205.128 225.352 205.036 225.753 205.036 226.181V226.869C205.036 227.456 205.137 227.953 205.339 228.361C205.545 228.766 205.83 229.074 206.194 229.287C206.558 229.496 206.981 229.6 207.463 229.6C207.777 229.6 208.06 229.556 208.313 229.469C208.569 229.378 208.79 229.243 208.975 229.064C209.161 228.882 209.304 228.656 209.405 228.386L210.558 228.71C210.437 229.101 210.233 229.445 209.946 229.742C209.66 230.035 209.306 230.264 208.884 230.43C208.463 230.592 207.989 230.672 207.463 230.672ZM218.326 222.742L215.454 230.511H214.24L211.367 222.742H212.662L214.806 228.933H214.887L217.032 222.742H218.326ZM222.596 230.672C221.847 230.672 221.202 230.507 220.659 230.177C220.119 229.843 219.703 229.378 219.41 228.781C219.12 228.181 218.975 227.483 218.975 226.687C218.975 225.891 219.12 225.19 219.41 224.583C219.703 223.973 220.111 223.498 220.634 223.157C221.16 222.813 221.773 222.641 222.475 222.641C222.879 222.641 223.279 222.709 223.673 222.843C224.068 222.978 224.427 223.197 224.75 223.501C225.074 223.801 225.332 224.199 225.524 224.694C225.716 225.19 225.812 225.8 225.812 226.525V227.031H219.824V225.999H224.599C224.599 225.561 224.511 225.17 224.336 224.826C224.164 224.482 223.918 224.211 223.597 224.012C223.28 223.813 222.906 223.713 222.475 223.713C221.999 223.713 221.588 223.831 221.24 224.067C220.897 224.3 220.632 224.603 220.446 224.978C220.261 225.352 220.168 225.753 220.168 226.181V226.869C220.168 227.456 220.269 227.953 220.472 228.361C220.677 228.766 220.962 229.074 221.326 229.287C221.691 229.496 222.114 229.6 222.596 229.6C222.909 229.6 223.193 229.556 223.446 229.469C223.702 229.378 223.923 229.243 224.108 229.064C224.294 228.882 224.437 228.656 224.538 228.386L225.691 228.71C225.57 229.101 225.366 229.445 225.079 229.742C224.793 230.035 224.439 230.264 224.017 230.43C223.596 230.592 223.122 230.672 222.596 230.672ZM228.537 225.837V230.511H227.343V222.742H228.496V223.956H228.598C228.78 223.562 229.056 223.245 229.427 223.005C229.798 222.762 230.277 222.641 230.863 222.641C231.389 222.641 231.85 222.749 232.244 222.965C232.639 223.177 232.945 223.501 233.165 223.936C233.384 224.367 233.493 224.914 233.493 225.574V230.511H232.3V225.655C232.3 225.045 232.141 224.57 231.824 224.229C231.507 223.885 231.072 223.713 230.519 223.713C230.138 223.713 229.798 223.796 229.498 223.961C229.201 224.126 228.967 224.367 228.795 224.684C228.623 225.001 228.537 225.386 228.537 225.837ZM240.285 227.334V222.742H241.479V230.511H240.285V229.196H240.204C240.022 229.59 239.739 229.926 239.355 230.202C238.97 230.475 238.485 230.612 237.898 230.612C237.413 230.612 236.981 230.506 236.603 230.293C236.226 230.077 235.929 229.754 235.713 229.322C235.497 228.887 235.389 228.339 235.389 227.678V222.742H236.583V227.597C236.583 228.164 236.742 228.616 237.058 228.953C237.379 229.29 237.787 229.459 238.282 229.459C238.579 229.459 238.881 229.383 239.188 229.231C239.498 229.079 239.758 228.847 239.967 228.533C240.179 228.22 240.285 227.82 240.285 227.334ZM246.637 230.672C245.889 230.672 245.243 230.507 244.7 230.177C244.161 229.843 243.744 229.378 243.451 228.781C243.161 228.181 243.016 227.483 243.016 226.687C243.016 225.891 243.161 225.19 243.451 224.583C243.744 223.973 244.152 223.498 244.675 223.157C245.201 222.813 245.814 222.641 246.516 222.641C246.92 222.641 247.32 222.709 247.714 222.843C248.109 222.978 248.468 223.197 248.792 223.501C249.115 223.801 249.373 224.199 249.565 224.694C249.758 225.19 249.854 225.8 249.854 226.525V227.031H243.866V225.999H248.64C248.64 225.561 248.552 225.17 248.377 224.826C248.205 224.482 247.959 224.211 247.638 224.012C247.322 223.813 246.947 223.713 246.516 223.713C246.04 223.713 245.629 223.831 245.282 224.067C244.938 224.3 244.673 224.603 244.488 224.978C244.302 225.352 244.209 225.753 244.209 226.181V226.869C244.209 227.456 244.311 227.953 244.513 228.361C244.719 228.766 245.004 229.074 245.368 229.287C245.732 229.496 246.155 229.6 246.637 229.6C246.951 229.6 247.234 229.556 247.487 229.469C247.743 229.378 247.964 229.243 248.149 229.064C248.335 228.882 248.478 228.656 248.579 228.386L249.732 228.71C249.611 229.101 249.407 229.445 249.12 229.742C248.834 230.035 248.48 230.264 248.058 230.43C247.637 230.592 247.163 230.672 246.637 230.672ZM258.241 233.586C257.664 233.586 257.169 233.511 256.754 233.363C256.339 233.218 255.994 233.026 255.717 232.787C255.444 232.55 255.227 232.298 255.065 232.028L256.016 231.36C256.123 231.502 256.26 231.664 256.425 231.846C256.59 232.031 256.816 232.191 257.103 232.326C257.393 232.465 257.772 232.534 258.241 232.534C258.868 232.534 259.386 232.382 259.794 232.078C260.202 231.775 260.406 231.3 260.406 230.652V229.074H260.304C260.217 229.216 260.092 229.391 259.93 229.6C259.772 229.806 259.542 229.99 259.242 230.152C258.946 230.31 258.544 230.389 258.039 230.389C257.411 230.389 256.848 230.241 256.349 229.944C255.854 229.647 255.461 229.216 255.171 228.649C254.884 228.083 254.741 227.395 254.741 226.586C254.741 225.79 254.881 225.097 255.161 224.507C255.441 223.914 255.83 223.455 256.329 223.132C256.828 222.805 257.405 222.641 258.059 222.641C258.565 222.641 258.966 222.725 259.263 222.894C259.563 223.059 259.792 223.248 259.95 223.46C260.112 223.669 260.237 223.841 260.325 223.976H260.446V222.742H261.599V230.733C261.599 231.401 261.447 231.944 261.144 232.362C260.844 232.783 260.439 233.092 259.93 233.287C259.424 233.486 258.861 233.586 258.241 233.586ZM258.2 229.317C258.679 229.317 259.084 229.207 259.414 228.988C259.745 228.769 259.996 228.454 260.168 228.043C260.34 227.631 260.426 227.139 260.426 226.566C260.426 226.006 260.341 225.512 260.173 225.084C260.004 224.656 259.755 224.32 259.424 224.077C259.094 223.835 258.686 223.713 258.2 223.713C257.695 223.713 257.273 223.841 256.936 224.098C256.602 224.354 256.351 224.698 256.182 225.129C256.017 225.561 255.935 226.04 255.935 226.566C255.935 227.105 256.019 227.582 256.188 227.997C256.359 228.408 256.612 228.732 256.946 228.968C257.283 229.201 257.701 229.317 258.2 229.317ZM266.756 230.672C266.008 230.672 265.362 230.507 264.819 230.177C264.28 229.843 263.863 229.378 263.57 228.781C263.28 228.181 263.135 227.483 263.135 226.687C263.135 225.891 263.28 225.19 263.57 224.583C263.863 223.973 264.271 223.498 264.794 223.157C265.32 222.813 265.933 222.641 266.635 222.641C267.039 222.641 267.439 222.709 267.833 222.843C268.228 222.978 268.587 223.197 268.911 223.501C269.234 223.801 269.492 224.199 269.684 224.694C269.877 225.19 269.973 225.8 269.973 226.525V227.031H263.985V225.999H268.759C268.759 225.561 268.671 225.17 268.496 224.826C268.324 224.482 268.078 224.211 267.758 224.012C267.441 223.813 267.066 223.713 266.635 223.713C266.159 223.713 265.748 223.831 265.401 224.067C265.057 224.3 264.792 224.603 264.607 224.978C264.421 225.352 264.329 225.753 264.329 226.181V226.869C264.329 227.456 264.43 227.953 264.632 228.361C264.838 228.766 265.123 229.074 265.487 229.287C265.851 229.496 266.274 229.6 266.756 229.6C267.07 229.6 267.353 229.556 267.606 229.469C267.862 229.378 268.083 229.243 268.268 229.064C268.454 228.882 268.597 228.656 268.698 228.386L269.851 228.71C269.73 229.101 269.526 229.445 269.239 229.742C268.953 230.035 268.599 230.264 268.177 230.43C267.756 230.592 267.282 230.672 266.756 230.672ZM272.697 225.837V230.511H271.504V222.742H272.657V223.956H272.758C272.94 223.562 273.216 223.245 273.587 223.005C273.958 222.762 274.437 222.641 275.024 222.641C275.55 222.641 276.01 222.749 276.404 222.965C276.799 223.177 277.106 223.501 277.325 223.936C277.544 224.367 277.654 224.914 277.654 225.574V230.511H276.46V225.655C276.46 225.045 276.301 224.57 275.985 224.229C275.668 223.885 275.233 223.713 274.68 223.713C274.299 223.713 273.958 223.796 273.658 223.961C273.361 224.126 273.127 224.367 272.955 224.684C272.783 225.001 272.697 225.386 272.697 225.837ZM282.807 230.672C282.058 230.672 281.413 230.507 280.87 230.177C280.33 229.843 279.914 229.378 279.621 228.781C279.331 228.181 279.186 227.483 279.186 226.687C279.186 225.891 279.331 225.19 279.621 224.583C279.914 223.973 280.322 223.498 280.844 223.157C281.37 222.813 281.984 222.641 282.685 222.641C283.09 222.641 283.49 222.709 283.884 222.843C284.279 222.978 284.638 223.197 284.961 223.501C285.285 223.801 285.543 224.199 285.735 224.694C285.927 225.19 286.023 225.8 286.023 226.525V227.031H280.035V225.999H284.81C284.81 225.561 284.722 225.17 284.547 224.826C284.375 224.482 284.129 224.211 283.808 224.012C283.491 223.813 283.117 223.713 282.685 223.713C282.21 223.713 281.799 223.831 281.451 224.067C281.107 224.3 280.843 224.603 280.657 224.978C280.472 225.352 280.379 225.753 280.379 226.181V226.869C280.379 227.456 280.48 227.953 280.683 228.361C280.888 228.766 281.173 229.074 281.537 229.287C281.902 229.496 282.325 229.6 282.807 229.6C283.12 229.6 283.404 229.556 283.656 229.469C283.913 229.378 284.134 229.243 284.319 229.064C284.504 228.882 284.648 228.656 284.749 228.386L285.902 228.71C285.781 229.101 285.577 229.445 285.29 229.742C285.003 230.035 284.649 230.264 284.228 230.43C283.807 230.592 283.333 230.672 282.807 230.672ZM287.554 230.511V222.742H288.707V223.916H288.788C288.93 223.531 289.186 223.219 289.557 222.98C289.928 222.741 290.346 222.621 290.811 222.621C290.899 222.621 291.009 222.623 291.14 222.626C291.272 222.629 291.371 222.634 291.438 222.641V223.855C291.398 223.845 291.305 223.83 291.16 223.809C291.019 223.786 290.869 223.774 290.71 223.774C290.333 223.774 289.995 223.853 289.699 224.012C289.405 224.167 289.173 224.383 289.001 224.659C288.832 224.932 288.748 225.244 288.748 225.595V230.511H287.554ZM294.854 230.693C294.362 230.693 293.915 230.6 293.514 230.415C293.113 230.226 292.794 229.954 292.558 229.6C292.322 229.243 292.204 228.811 292.204 228.306C292.204 227.86 292.292 227.5 292.467 227.223C292.643 226.943 292.877 226.724 293.17 226.566C293.464 226.407 293.787 226.289 294.141 226.212C294.499 226.131 294.858 226.067 295.219 226.02C295.691 225.959 296.073 225.913 296.367 225.883C296.663 225.849 296.879 225.794 297.014 225.716C297.152 225.639 297.221 225.504 297.221 225.311V225.271C297.221 224.772 297.085 224.384 296.812 224.108C296.542 223.831 296.132 223.693 295.583 223.693C295.013 223.693 294.566 223.818 294.242 224.067C293.919 224.317 293.691 224.583 293.56 224.866L292.427 224.462C292.629 223.99 292.899 223.622 293.236 223.359C293.577 223.093 293.947 222.907 294.349 222.803C294.753 222.695 295.151 222.641 295.542 222.641C295.792 222.641 296.078 222.671 296.402 222.732C296.729 222.789 297.044 222.909 297.348 223.091C297.655 223.273 297.909 223.548 298.111 223.916C298.314 224.283 298.415 224.775 298.415 225.392V230.511H297.221V229.459H297.161C297.08 229.627 296.945 229.808 296.756 230C296.567 230.192 296.316 230.356 296.002 230.49C295.689 230.625 295.306 230.693 294.854 230.693ZM295.036 229.62C295.509 229.62 295.906 229.528 296.23 229.342C296.557 229.157 296.803 228.917 296.968 228.624C297.137 228.331 297.221 228.022 297.221 227.699V226.606C297.171 226.667 297.06 226.723 296.888 226.773C296.719 226.82 296.523 226.862 296.301 226.9C296.082 226.933 295.868 226.964 295.659 226.991C295.453 227.014 295.286 227.034 295.158 227.051C294.848 227.092 294.558 227.157 294.288 227.249C294.022 227.336 293.806 227.469 293.641 227.648C293.479 227.823 293.398 228.063 293.398 228.366C293.398 228.781 293.551 229.095 293.858 229.307C294.168 229.516 294.561 229.62 295.036 229.62ZM303.687 222.742V223.754H299.661V222.742H303.687ZM300.835 220.881H302.028V228.285C302.028 228.622 302.077 228.875 302.175 229.044C302.276 229.209 302.404 229.32 302.559 229.378C302.718 229.432 302.885 229.459 303.06 229.459C303.191 229.459 303.299 229.452 303.384 229.438C303.468 229.422 303.535 229.408 303.586 229.398L303.829 230.47C303.748 230.501 303.635 230.531 303.49 230.561C303.345 230.595 303.161 230.612 302.939 230.612C302.601 230.612 302.271 230.539 301.947 230.394C301.627 230.249 301.361 230.028 301.148 229.732C300.939 229.435 300.835 229.061 300.835 228.609V220.881ZM308.371 230.672C307.623 230.672 306.977 230.507 306.434 230.177C305.895 229.843 305.478 229.378 305.185 228.781C304.895 228.181 304.75 227.483 304.75 226.687C304.75 225.891 304.895 225.19 305.185 224.583C305.478 223.973 305.886 223.498 306.409 223.157C306.935 222.813 307.549 222.641 308.25 222.641C308.654 222.641 309.054 222.709 309.448 222.843C309.843 222.978 310.202 223.197 310.526 223.501C310.849 223.801 311.107 224.199 311.3 224.694C311.492 225.19 311.588 225.8 311.588 226.525V227.031H305.6V225.999H310.374C310.374 225.561 310.286 225.17 310.111 224.826C309.939 224.482 309.693 224.211 309.373 224.012C309.056 223.813 308.681 223.713 308.25 223.713C307.774 223.713 307.363 223.831 307.016 224.067C306.672 224.3 306.407 224.603 306.222 224.978C306.036 225.352 305.944 225.753 305.944 226.181V226.869C305.944 227.456 306.045 227.953 306.247 228.361C306.453 228.766 306.738 229.074 307.102 229.287C307.466 229.496 307.889 229.6 308.371 229.6C308.685 229.6 308.968 229.556 309.221 229.469C309.477 229.378 309.698 229.243 309.883 229.064C310.069 228.882 310.212 228.656 310.313 228.386L311.466 228.71C311.345 229.101 311.141 229.445 310.854 229.742C310.568 230.035 310.214 230.264 309.792 230.43C309.371 230.592 308.897 230.672 308.371 230.672ZM316.052 230.672C315.405 230.672 314.833 230.509 314.338 230.182C313.842 229.851 313.454 229.386 313.174 228.786C312.894 228.182 312.754 227.469 312.754 226.647C312.754 225.831 312.894 225.123 313.174 224.522C313.454 223.922 313.844 223.459 314.343 223.132C314.842 222.805 315.418 222.641 316.072 222.641C316.578 222.641 316.978 222.725 317.271 222.894C317.568 223.059 317.793 223.248 317.949 223.46C318.107 223.669 318.23 223.841 318.318 223.976H318.419V220.153H319.613V230.511H318.459V229.317H318.318C318.23 229.459 318.105 229.637 317.944 229.853C317.782 230.066 317.551 230.256 317.251 230.425C316.951 230.59 316.551 230.672 316.052 230.672ZM316.214 229.6C316.693 229.6 317.097 229.476 317.428 229.226C317.758 228.973 318.009 228.624 318.181 228.179C318.353 227.731 318.439 227.213 318.439 226.626C318.439 226.047 318.355 225.539 318.186 225.104C318.018 224.666 317.768 224.325 317.438 224.082C317.107 223.836 316.699 223.713 316.214 223.713C315.708 223.713 315.287 223.843 314.949 224.103C314.616 224.359 314.364 224.708 314.196 225.15C314.031 225.588 313.948 226.08 313.948 226.626C313.948 227.179 314.032 227.682 314.201 228.134C314.373 228.582 314.626 228.939 314.96 229.206C315.297 229.469 315.715 229.6 316.214 229.6Z" fill="#878787"/>
</g>
<defs>
<clipPath id="clip0_2_908">
<rect width="300" height="380" rx="24" fill="white"/>
</clipPath>
</defs>
</svg>
