<svg width="107" height="107" viewBox="0 0 107 107" fill="none" xmlns="http://www.w3.org/2000/svg">
<rect width="106.429" height="106.429" rx="31.9286" fill="#DDE3FF"/>
<g clip-path="url(#clip0_103_196)">
<path d="M68.1988 50.7675C68.63 50.7163 69.071 50.7163 69.5002 50.7675C69.7364 50.234 69.7778 49.3008 69.5612 48.2967C69.2541 46.8005 68.8328 45.887 67.9508 46.0307C67.0786 46.1744 67.0491 47.2612 67.3562 48.7574C67.5413 49.5981 67.8484 50.3265 68.1968 50.7675H68.1988ZM60.692 51.9566C61.318 52.2342 61.696 52.4173 61.8516 52.2539C61.9441 52.1515 61.9224 51.9665 61.7689 51.7204C61.4618 51.2183 60.8258 50.7045 60.1486 50.419C58.7331 49.8245 57.1029 50.0194 55.8626 50.9309C55.4413 51.238 55.0535 51.6692 55.1047 51.9251C55.1243 52.0078 55.1873 52.0688 55.3311 52.0885C55.6795 52.1299 56.8785 51.5255 58.2743 51.4329C59.2489 51.3719 60.0679 51.679 60.6939 51.9566H60.692ZM59.432 52.6752C58.611 52.8091 58.17 53.0749 57.8845 53.321C57.6286 53.5356 57.4849 53.7817 57.4849 53.947L57.5459 54.1006L57.6798 54.1518C57.8648 54.1518 58.2743 53.9766 58.2743 53.9766C59.115 53.6694 60.0167 53.5671 60.8987 53.7108C61.3082 53.7521 61.5031 53.7817 61.5956 53.6399C61.6153 53.5986 61.6468 53.5159 61.5641 53.384C61.3791 53.067 60.5483 52.5413 59.432 52.6752ZM65.667 55.3192C66.2202 55.585 66.8266 55.4827 67.0215 55.083C67.2263 54.6735 66.9388 54.1183 66.3856 53.8525C65.8324 53.5749 65.226 53.6891 65.0213 54.0888C64.8264 54.4983 65.1138 55.0417 65.667 55.3192ZM69.2245 52.2027C68.7737 52.1929 68.3937 52.6851 68.3937 53.3092C68.3839 53.9254 68.7323 54.4274 69.1832 54.4372C69.634 54.4471 70.0042 53.9549 70.014 53.3407C70.0238 52.7244 69.6655 52.2126 69.2245 52.2027ZM39.0259 63.338C38.9137 63.2041 38.7286 63.2454 38.5534 63.2868C38.4097 63.3183 38.2659 63.338 38.1321 63.3478C37.8249 63.3478 37.5375 63.2041 37.3623 62.958C37.1575 62.641 37.1674 62.1685 37.3938 61.635L37.4962 61.3889C37.8663 60.5798 38.4608 59.2253 37.7836 57.9338C37.2816 56.9592 36.4508 56.3548 35.4447 56.2308C34.48 56.1068 33.5272 56.4454 32.8598 57.1541C31.8655 58.2507 31.712 59.7489 31.9069 60.2825C31.9778 60.4774 32.0919 60.5286 32.1727 60.5384C32.3361 60.5581 32.5822 60.436 32.7475 60.0147L32.7889 59.8808C32.8598 59.6544 32.9936 59.2351 33.1984 58.9063C33.7516 58.0657 34.8698 57.8294 35.7007 58.3826C36.3976 58.8335 36.6752 59.6958 36.3779 60.5049C36.2243 60.9361 35.9684 61.7354 36.0294 62.4028C36.1417 63.7455 36.9626 64.279 37.7009 64.3401C38.4195 64.3716 38.9215 63.9601 39.0554 63.6628C39.1263 63.4876 39.0653 63.3852 39.0239 63.334L39.0259 63.338ZM80.5645 60.8869C80.533 60.7845 80.3598 60.1289 80.1137 59.3493L79.6117 58.0066C80.596 56.53 80.6157 55.207 80.4838 54.4589C80.3401 53.5356 79.9601 52.7461 79.1825 51.9369C78.4127 51.116 76.8239 50.2753 74.5894 49.6512L73.4199 49.3343C73.4199 49.2831 73.3589 46.5662 73.3077 45.4066C73.2762 44.5659 73.2053 43.2429 72.7958 41.9514C72.3135 40.1973 71.463 38.6597 70.4058 37.6753C73.3176 34.6513 75.1426 31.3182 75.1328 28.4675C75.1229 22.9609 68.3858 21.2993 60.0797 24.7446L58.3157 25.4927C57.2388 24.4374 56.1717 23.3802 55.085 22.325C45.6094 14.0503 15.9974 47.017 25.4612 55.0358L27.5323 56.7899C26.9791 58.2862 26.7842 59.8966 26.9574 61.4972C27.1838 63.7022 28.3119 65.8147 30.1567 67.4448C31.899 68.9922 34.1965 69.9766 36.433 69.9766C40.1146 78.4777 48.533 83.6968 58.3964 83.9941C68.9883 84.3012 77.8792 79.3282 81.6001 70.3881C81.8462 69.762 82.8818 66.9329 82.8818 64.4405C82.8818 61.9283 81.4662 60.8928 80.5645 60.8928V60.8869ZM37.2422 67.5728C36.9252 67.6338 36.5866 67.6554 36.2578 67.6436C33.0684 67.5609 29.6133 64.6807 29.2648 61.255C28.8848 57.4711 30.8123 54.5692 34.228 53.8821C34.7005 53.7797 35.1809 53.7482 35.6633 53.7698C37.5808 53.8821 40.4001 55.3488 41.036 59.5225C41.6108 63.2238 40.7072 66.988 37.2422 67.5826V67.5728ZM33.6748 51.618C31.5525 52.0275 29.6763 53.2383 28.5265 54.8999C27.8394 54.3368 26.5676 53.2284 26.3432 52.7973C24.5182 49.3106 28.3434 42.5539 31.0091 38.7286C37.6123 29.2943 47.9581 22.1478 52.7481 23.4393C53.5277 23.6657 56.1008 26.6582 56.1008 26.6582C56.1008 26.6582 51.3128 29.314 46.8713 33.0251C40.8942 37.6399 36.3818 44.3356 33.6748 51.616V51.618ZM67.2341 66.169C67.305 66.1375 67.3582 66.0568 67.3463 65.984C67.3365 65.8816 67.2538 65.8088 67.1514 65.8206C67.1514 65.8206 62.1469 66.5687 57.4101 64.8263C57.9219 63.1549 59.2961 63.7593 61.3673 63.9247C64.5862 64.1196 67.8169 63.7711 70.9236 62.8891C73.0675 62.2729 75.8769 61.0641 78.0701 59.3316C78.8084 60.9518 79.0644 62.7355 79.0644 62.7355C79.0644 62.7355 79.6392 62.6332 80.1098 62.9304C80.5606 63.208 80.8894 63.7928 80.663 65.2792C80.2121 68.0689 79.023 70.3349 77.0326 72.4257C75.7923 73.7684 74.3157 74.8768 72.6639 75.686C71.7504 76.1683 70.7976 76.568 69.823 76.8968C62.3162 79.3478 54.6361 76.6507 52.1555 70.8566C51.9606 70.4156 51.7972 69.9549 51.6633 69.4824C50.608 65.667 51.4999 61.0838 54.3093 58.2035C54.4727 58.0184 54.6479 57.8038 54.6479 57.5262C54.6479 57.2998 54.5042 57.0655 54.3821 56.8903C53.4076 55.4649 50.0135 53.0453 50.6907 48.3479C51.1829 44.9735 54.1262 42.6051 56.8746 42.7389L57.5715 42.7803C58.7606 42.8512 59.7962 43.0067 60.7707 43.0461C62.4107 43.1169 63.8873 42.8827 65.6316 41.4258C66.2163 40.9336 66.6868 40.5024 67.4881 40.3705C67.5708 40.3607 67.7854 40.278 68.1949 40.2997C68.626 40.3193 69.0355 40.4532 69.3938 40.6895C70.7995 41.6227 70.9944 43.8788 71.0653 45.5287C71.1067 46.4717 71.2189 48.7476 71.2602 49.4051C71.3528 50.9014 71.7426 51.1179 72.532 51.3739C72.9829 51.5274 73.4042 51.6397 74.0086 51.805C75.8651 52.3287 76.9617 52.8603 77.6488 53.5375C78.0701 53.9588 78.2532 54.4097 78.3162 54.8389C78.5426 56.4395 77.0858 58.4082 73.2309 60.2018C69.0159 62.1607 63.9109 62.6528 60.3829 62.263L59.1426 62.1193C56.3233 61.7393 54.7129 65.3894 56.404 67.9035C57.4908 69.5139 60.4754 70.5692 63.4482 70.5692C70.268 70.5692 75.5167 67.6476 77.4657 65.1236L77.6193 64.8972C77.7217 64.7535 77.639 64.6826 77.5169 64.7633C75.9281 65.8501 68.8426 70.1873 61.2747 68.8859C61.2747 68.8859 60.3514 68.7323 59.5107 68.4036C58.8433 68.1476 57.4494 67.5019 57.2762 66.0647C63.3872 67.9626 67.2322 66.1671 67.2322 66.1671L67.2341 66.169ZM45.8653 38.6873C48.214 35.9704 51.1042 33.6118 53.6891 32.2888C53.7817 32.2376 53.8742 32.34 53.8328 32.4227C53.6281 32.7928 53.2284 33.602 53.1044 34.1965C53.0847 34.2891 53.1871 34.3599 53.258 34.3088C54.8783 33.2122 57.6778 32.0329 60.1388 31.8793C60.2411 31.8793 60.2923 32.0132 60.2096 32.0742C59.8001 32.3912 59.4398 32.7515 59.1229 33.161C59.0717 33.2318 59.1229 33.3244 59.2056 33.3244C60.9381 33.3441 63.3695 33.9504 64.9484 34.8423C65.0606 34.9033 64.9898 35.1081 64.8657 35.0785C62.4658 34.5253 58.5382 34.104 54.4589 35.11C50.8187 36.0019 48.0408 37.3662 46.009 38.8526C45.9067 38.9235 45.7826 38.7896 45.8653 38.6873Z" fill="black"/>
</g>
<defs>
<clipPath id="clip0_103_196">
<rect width="63" height="63" fill="white" transform="translate(21 21)"/>
</clipPath>
</defs>
</svg>
