<svg width="107" height="107" viewBox="0 0 107 107" fill="none" xmlns="http://www.w3.org/2000/svg">
<rect width="106.429" height="106.429" rx="31.9286" fill="#DDE3FF"/>
<g clip-path="url(#clip0_103_212)">
<path d="M22.6821 34H81.2887C84.9976 34 88 37.0003 88 40.7065V63.0614C88 66.7676 84.9976 69.7678 81.2887 69.7678H60.2715L63.1562 76.8273L50.4695 69.7678H22.7116C19.0027 69.7678 16.0002 66.7676 16.0002 63.0614V40.7065C15.9708 37.0297 18.9732 34 22.6821 34Z" fill="#9B5C8F"/>
<path d="M20.1001 40.1126C20.5099 39.5569 21.1245 39.2645 21.944 39.206C23.4367 39.089 24.2855 39.7909 24.4904 41.3118C25.3977 47.4244 26.3928 52.6011 27.4465 56.8419L33.8562 44.6459C34.4416 43.5345 35.1733 42.9496 36.0513 42.8911C37.3391 42.8034 38.1294 43.6223 38.4513 45.3479C39.183 49.2377 40.1196 52.5426 41.2318 55.3503C41.9928 47.9216 43.2806 42.5694 45.0952 39.2645C45.5343 38.4455 46.1782 38.0361 47.027 37.9776C47.7001 37.9191 48.3148 38.1238 48.8709 38.5625C49.4269 39.0012 49.7196 39.5569 49.7782 40.2296C49.8074 40.7561 49.7196 41.1948 49.4855 41.6335C48.344 43.7393 47.4074 47.2782 46.6465 52.1917C45.9148 56.9589 45.6513 60.6733 45.827 63.3348C45.8855 64.066 45.7684 64.7094 45.4757 65.2651C45.1245 65.9085 44.5977 66.2595 43.9245 66.318C43.1635 66.3765 42.3733 66.0255 41.6123 65.2358C38.8904 62.4574 36.7245 58.3043 35.144 52.7766C33.2416 56.5202 31.8367 59.3279 30.9294 61.1997C29.2026 64.5047 27.7391 66.201 26.5099 66.2887C25.7196 66.3472 25.0465 65.6745 24.4611 64.2707C22.9684 60.4393 21.3587 53.0398 19.6318 42.0722C19.5148 41.3118 19.6904 40.6391 20.1001 40.1126ZM82.9977 44.7044C81.944 42.8619 80.3928 41.7505 78.3148 41.3118C77.7587 41.1948 77.2318 41.1363 76.7343 41.1363C73.9245 41.1363 71.6416 42.5986 69.8562 45.5233C68.3343 48.0093 67.5733 50.7586 67.5733 53.771C67.5733 56.023 68.0416 57.9533 68.9782 59.5619C70.0318 61.4045 71.583 62.5159 73.6611 62.9546C74.2172 63.0716 74.744 63.1301 75.2416 63.1301C78.0806 63.1301 80.3635 61.6677 82.1196 58.743C83.6416 56.2278 84.4026 53.4785 84.4026 50.4661C84.4318 48.1848 83.9343 46.2838 82.9977 44.7044ZM79.3099 52.8058C78.9001 54.7362 78.1684 56.1693 77.0855 57.1344C76.2367 57.8948 75.4465 58.2165 74.7148 58.0703C74.0123 57.9241 73.427 57.3099 72.9879 56.1693C72.6367 55.2626 72.4611 54.3559 72.4611 53.5078C72.4611 52.7766 72.5196 52.0454 72.666 51.3727C72.9294 50.1736 73.4269 49.0037 74.2172 47.8923C75.183 46.4592 76.2074 45.8743 77.2611 46.079C77.9635 46.2253 78.5489 46.8394 78.9879 47.9801C79.3391 48.8867 79.5148 49.7934 79.5148 50.6416C79.5148 51.402 79.4562 52.1332 79.3099 52.8058ZM64.6757 44.7044C63.6221 42.8619 62.0416 41.7505 59.9928 41.3118C59.4367 41.1948 58.9099 41.1363 58.4123 41.1363C55.6026 41.1363 53.3196 42.5986 51.5343 45.5233C50.0123 48.0093 49.2513 50.7586 49.2513 53.771C49.2513 56.023 49.7196 57.9533 50.6562 59.5619C51.7099 61.4045 53.2611 62.5159 55.3391 62.9546C55.8952 63.0716 56.4221 63.1301 56.9196 63.1301C59.7587 63.1301 62.0416 61.6677 63.7977 58.743C65.3196 56.2278 66.0806 53.4785 66.0806 50.4661C66.0806 48.1848 65.6123 46.2838 64.6757 44.7044ZM60.9587 52.8058C60.5489 54.7362 59.8172 56.1693 58.7343 57.1344C57.8855 57.8948 57.0952 58.2165 56.3635 58.0703C55.6611 57.9241 55.0757 57.3099 54.6367 56.1693C54.2855 55.2626 54.1099 54.3559 54.1099 53.5078C54.1099 52.7766 54.1684 52.0454 54.3148 51.3727C54.5782 50.1736 55.0757 49.0037 55.866 47.8923C56.8318 46.4592 57.8562 45.8743 58.9099 46.079C59.6123 46.2253 60.1977 46.8394 60.6367 47.9801C60.9879 48.8867 61.1635 49.7934 61.1635 50.6416C61.1928 51.402 61.105 52.1332 60.9587 52.8058Z" fill="white"/>
</g>
<defs>
<clipPath id="clip0_103_212">
<rect width="72" height="43" fill="white" transform="translate(16 34)"/>
</clipPath>
</defs>
</svg>
